# File created by Blade
# Date/Time:  Thu Jan 22 19:34:15 2015
# Frame Rate: 120.000 fps
#------------------------------------------------------
:FULLY-SPECIFIED
:DEGREES
775
root -13.639372 14.768645 -9.666421 22.864059 -28.025323 27.201127
RightUpLeg -127.276439 -24.613353 -5.931258
RightLeg 136.461955 -0.000000 -0.000000
RightFoot -45.148669 -10.094240 5.570400
RightToeBase -1.763797 -0.000000 0.000000
LeftUpLeg -12.773569 36.134647 26.050063
LeftLeg 5.153766 -0.000000 -0.000000
LeftFoot -5.345127 11.474208 -43.809157
LeftToeBase 19.883592 -0.000000 -0.000000
Spine 13.742846 9.380435 27.236916
RightShoulder -2.184789 0.774205 -11.889834
RightArm 15.309012 38.041567 76.634611
RightForeArm -21.184766 -0.000000 28.701065
RightHand 29.299374 0.000000 -93.188488
RightHandThumb1 -24.326973 -0.000000 -32.862282
LeftShoulder -31.216522 -14.683660 63.801184
LeftArm 62.664562 -56.465848 -28.148998
LeftForeArm 18.427860 -0.000000 12.819645
LeftHand -1.282197 -0.000000 21.823426
LeftHandThumb1 -26.253704 0.000000 33.147579
Head 0.515016 38.622448 41.009207
776
root -13.630725 14.790424 -9.662821 22.867858 -28.064947 27.218646
RightUpLeg -127.231207 -24.620111 -5.970755
RightLeg 136.371111 -0.000000 -0.000000
RightFoot -45.125105 -10.077030 5.558450
RightToeBase -1.794630 -0.000000 0.000000
LeftUpLeg -12.741319 36.238531 25.955156
LeftLeg 5.048528 -0.000000 -0.000000
LeftFoot -5.261313 11.420292 -43.538284
LeftToeBase 19.854667 -0.000000 -0.000000
Spine 13.694468 9.348276 27.287060
RightShoulder -2.055263 0.663198 -11.968340
RightArm 15.445735 38.095496 76.646456
RightForeArm -21.172388 -0.000000 28.529950
RightHand 29.372129 -0.000000 -93.264492
RightHandThumb1 -24.326973 -0.000000 -32.862282
LeftShoulder -31.117832 -14.719641 63.869773
LeftArm 62.240827 -56.337810 -27.738141
LeftForeArm 18.976851 -0.000000 12.741676
LeftHand -1.274779 -0.000000 21.570744
LeftHandThumb1 -26.253704 0.000000 33.147579
Head 0.970748 38.707711 41.162696
777
root -13.623830 14.810749 -9.657765 22.889095 -28.115491 27.242501
RightUpLeg -127.204766 -24.619427 -6.010673
RightLeg 136.289494 -0.000000 -0.000000
RightFoot -45.119579 -10.054245 5.553831
RightToeBase -1.757382 -0.000000 0.000000
LeftUpLeg -12.731682 36.362927 25.839807
LeftLeg 4.954267 -0.000000 -0.000000
LeftFoot -5.184541 11.384203 -43.279743
LeftToeBase 19.767091 -0.000000 -0.000000
Spine 13.647593 9.362627 27.318579
RightShoulder -1.950680 0.761622 -12.036264
RightArm 15.407963 38.327913 76.633598
RightForeArm -21.429240 -0.000000 28.350260
RightHand 29.325140 0.000000 -93.356531
RightHandThumb1 -24.326973 -0.000000 -32.862282
LeftShoulder -31.082987 -14.703369 63.847166
LeftArm 62.268794 -56.354590 -27.756085
LeftForeArm 19.703336 -0.000000 12.753917
LeftHand -1.433527 -0.000000 21.163999
LeftHandThumb1 -26.253704 0.000000 33.147579
Head 1.284236 38.787806 41.307869
778
root -13.616579 14.830679 -9.651485 22.898269 -28.164817 27.285965
RightUpLeg -127.179761 -24.630486 -6.074780
RightLeg 136.213556 -0.000000 -0.000000
RightFoot -45.111471 -10.031050 5.548442
RightToeBase -1.701080 -0.000000 0.000000
LeftUpLeg -12.724613 36.426555 25.719148
LeftLeg 4.881414 -0.000000 -0.000000
LeftFoot -5.149873 11.386325 -43.075123
LeftToeBase 19.640941 -0.000000 -0.000000
Spine 13.614431 9.367094 27.327233
RightShoulder -1.900997 0.984311 -12.112942
RightArm 15.268626 38.465013 76.556556
RightForeArm -21.647669 -0.000000 28.130987
RightHand 29.369325 -0.000000 -93.454101
RightHandThumb1 -24.326973 -0.000000 -32.862282
LeftShoulder -31.077939 -14.701140 63.849957
LeftArm 62.125354 -56.310687 -27.523644
LeftForeArm 20.203685 -0.000000 12.663022
LeftHand -1.353788 -0.000000 20.669350
LeftHandThumb1 -26.253704 0.000000 33.147579
Head 1.539745 38.849755 41.473608
779
root -13.608196 14.850332 -9.644843 22.916479 -28.207223 27.348822
RightUpLeg -127.174554 -24.667723 -6.154363
RightLeg 136.139848 -0.000000 -0.000000
RightFoot -45.113856 -9.980305 5.555779
RightToeBase -1.689986 -0.000000 0.000000
LeftUpLeg -12.747876 36.474168 25.571791
LeftLeg 4.817186 -0.000000 -0.000000
LeftFoot -5.127485 11.391535 -42.883188
LeftToeBase 19.535882 -0.000000 -0.000000
Spine 13.553353 9.382986 27.311889
RightShoulder -1.892887 1.057422 -12.134690
RightArm 15.230096 38.375494 76.417870
RightForeArm -21.548435 0.000000 27.962632
RightHand 29.334316 0.000000 -93.592320
RightHandThumb1 -24.326973 -0.000000 -32.862282
LeftShoulder -31.071563 -14.696930 63.855982
LeftArm 61.992731 -56.255159 -27.293776
LeftForeArm 20.573208 -0.000000 12.567477
LeftHand -1.426375 -0.000000 20.400733
LeftHandThumb1 -26.253704 0.000000 33.147579
Head 1.776550 38.890756 41.700591
780
root -13.601258 14.868641 -9.637602 22.930816 -28.243159 27.404817
RightUpLeg -127.162881 -24.696947 -6.219396
RightLeg 136.078739 -0.000000 -0.000000
RightFoot -45.106055 -9.983191 5.524946
RightToeBase -1.618768 -0.000000 0.000000
LeftUpLeg -12.774244 36.475197 25.446134
LeftLeg 4.780445 -0.000000 -0.000000
LeftFoot -5.138059 11.445060 -42.640810
LeftToeBase 19.406027 -0.000000 -0.000000
Spine 13.498970 9.425910 27.317990
RightShoulder -1.877926 1.174491 -12.174297
RightArm 15.192711 38.602845 76.417266
RightForeArm -21.803655 -0.000000 27.823531
RightHand 29.302589 -0.000000 -93.702602
RightHandThumb1 -24.326973 -0.000000 -32.862282
LeftShoulder -31.063930 -14.771040 63.875754
LeftArm 61.918676 -56.179995 -27.144247
LeftForeArm 20.846169 -0.000000 12.465540
LeftHand -1.433859 -0.000000 20.118682
LeftHandThumb1 -26.253704 0.000000 33.147579
Head 1.958906 38.860676 41.913745
781
root -13.594255 14.884642 -9.633222 22.957590 -28.264877 27.454064
RightUpLeg -127.172436 -24.736837 -6.270154
RightLeg 136.021280 -0.000000 -0.000000
RightFoot -45.103456 -9.942565 5.521679
RightToeBase -1.555492 -0.000000 0.000000
LeftUpLeg -12.835136 36.390836 25.349925
LeftLeg 4.804475 -0.000000 -0.000000
LeftFoot -5.214153 11.518705 -42.491602
LeftToeBase 19.260166 -0.000000 -0.000000
Spine 13.437318 9.422375 27.317440
RightShoulder -1.834728 1.347957 -12.225769
RightArm 15.070276 38.772780 76.381544
RightForeArm -22.002943 -0.000000 27.733570
RightHand 29.335245 0.000000 -93.713485
RightHandThumb1 -24.326973 -0.000000 -32.862282
LeftShoulder -31.060261 -14.776069 63.895914
LeftArm 61.753657 -56.133350 -26.917032
LeftForeArm 21.045428 -0.000000 12.371496
LeftHand -1.416242 -0.000000 20.181908
LeftHandThumb1 -26.253704 0.000000 33.147579
Head 2.144238 38.874179 42.146862
782
root -13.587482 14.898369 -9.628344 22.975097 -28.288987 27.488988
RightUpLeg -127.165568 -24.757959 -6.316655
RightLeg 135.967276 -0.000000 -0.000000
RightFoot -45.099222 -9.911798 5.541183
RightToeBase -1.636937 -0.000000 0.000000
LeftUpLeg -12.880101 36.381327 25.255838
LeftLeg 4.805564 -0.000000 -0.000000
LeftFoot -5.254734 11.589676 -42.243055
LeftToeBase 19.228055 -0.000000 -0.000000
Spine 13.406020 9.462613 27.316320
RightShoulder -1.852588 1.017713 -12.152470
RightArm 15.376138 38.557761 76.349703
RightForeArm -21.561655 0.000000 27.762299
RightHand 29.259895 -0.000000 -93.827072
RightHandThumb1 -24.326973 -0.000000 -32.862282
LeftShoulder -31.070087 -14.711154 63.914432
LeftArm 61.691982 -56.151898 -26.795461
LeftForeArm 21.045068 -0.000000 12.264864
LeftHand -1.444768 -0.000000 20.260569
LeftHandThumb1 -26.253704 0.000000 33.147579
Head 2.218558 38.837879 42.418759
